<svg version="1.1" id="Layer_1" xmlns="http://www.w3.org/2000/svg" xmlns:xlink="http://www.w3.org/1999/xlink" x="0px" y="0px"
	 width="100%" viewBox="0 0 823 226" enable-background="new 0 0 823 226" xml:space="preserve">
<path fill="#000000" opacity="1.000000" stroke="none" 
	d="
M633.000000,227.000000 
	C423.549774,227.000000 214.599518,226.982422 5.649385,227.123657 
	C1.383078,227.126541 0.893755,225.998474 0.900919,222.151382 
	C1.035589,149.835510 1.037808,77.519272 0.891664,5.203455 
	C0.884122,1.471004 1.813987,0.912612 5.294770,0.913816 
	C276.730072,1.007760 548.165405,1.005081 819.600769,0.938657 
	C822.799805,0.937874 824.138672,1.075267 824.128845,5.099081 
	C823.951843,77.748016 823.966492,150.397552 824.101929,223.046677 
	C824.108521,226.564026 823.279053,227.096344 819.954895,227.089813 
	C757.803467,226.967575 695.651672,227.000000 633.000000,227.000000 
z"/>
<path fill="#E50914" opacity="1.000000" stroke="none" 
	d="
M72.045433,95.873215 
	C74.186157,101.706589 76.280128,107.145958 78.417297,112.697548 
	C80.899368,111.047142 79.952911,108.846283 79.956284,107.016190 
	C80.016541,74.364075 80.084488,41.711334 79.897026,9.060185 
	C79.872665,4.816141 81.075859,3.771880 85.171661,3.901957 
	C94.824326,4.208514 104.495773,4.123183 114.154320,3.930618 
	C117.270004,3.868500 118.063751,4.846019 118.060104,7.885038 
	C117.979881,74.688736 117.985825,141.492569 118.045586,208.296295 
	C118.047989,210.988632 117.403351,211.841248 114.501816,212.109833 
	C103.241364,213.152115 92.013069,214.565582 80.791458,215.988144 
	C77.730637,216.376160 76.104286,215.089005 75.197647,212.418762 
	C69.804413,196.534744 64.463219,180.632904 59.018299,164.766647 
	C53.732624,149.364410 48.340458,133.998734 43.009384,118.612030 
	C42.799477,118.006187 42.870872,117.241493 41.445637,117.356461 
	C40.620342,118.754707 41.022644,120.573326 41.021088,122.262138 
	C40.992321,153.581604 40.952961,184.901245 41.066620,216.220322 
	C41.079067,219.649918 40.545231,220.871948 36.590683,221.189545 
	C27.637442,221.908600 18.752287,223.546082 9.861860,224.951828 
	C3.903274,225.893997 3.004743,225.243820 3.002483,219.157394 
	C2.995330,199.891815 2.999071,180.626221 2.998827,161.360641 
	C2.998557,140.190323 3.232106,119.016693 2.930892,97.850670 
	C2.645565,77.801094 3.245030,57.755974 2.595465,37.695683 
	C2.259650,27.324808 3.132168,16.865469 2.739131,6.450239 
	C2.652399,4.151902 3.634529,4.018861 5.198737,4.016542 
	C15.694053,4.000984 26.189432,4.021142 36.684715,3.996854 
	C38.635433,3.992340 39.446899,4.837861 40.101879,6.756000 
	C46.888493,26.630903 54.668938,46.150337 61.156952,66.139854 
	C64.373085,76.048744 68.360306,85.707359 72.045433,95.873215 
z"/>
<path fill="#E50914" opacity="1.000000" stroke="none" 
	d="
M738.279053,10.609730 
	C743.650452,24.179062 748.824951,37.403286 754.025879,50.617115 
	C754.663574,52.237179 754.897949,54.734943 756.953308,54.653568 
	C758.512756,54.591827 758.524597,52.201088 759.156128,50.752113 
	C765.658081,35.834293 772.393921,21.017689 778.793823,6.057012 
	C779.600464,4.171334 780.451416,3.996181 781.983643,3.997422 
	C793.980652,4.007141 805.978760,4.095607 817.974121,3.955482 
	C822.530090,3.902261 820.811890,6.380711 819.978149,8.361204 
	C814.611206,21.109577 809.210205,33.844147 803.727844,46.543289 
	C796.882385,62.399754 789.870605,78.185280 783.175964,94.104568 
	C782.536682,95.624733 781.723328,97.117928 780.901794,98.355003 
	C775.451904,106.561302 778.096008,114.102768 781.491211,122.229492 
	C789.229858,140.752899 796.683044,159.416718 803.522156,178.288040 
	C808.972107,193.326065 815.222900,208.046616 820.547302,223.122955 
	C820.701599,223.559875 820.694519,224.053787 820.803772,224.802521 
	C812.876892,225.733673 805.364807,223.274170 797.707520,222.742874 
	C792.034607,222.349258 786.447510,220.838852 780.785034,220.117432 
	C778.475281,219.823166 777.638123,219.010666 776.769653,216.748032 
	C769.765686,198.499954 762.477600,180.360947 755.239380,162.095505 
	C753.507385,162.611130 752.660583,163.770447 751.970276,165.424698 
	C745.941650,179.870544 739.816162,194.276001 733.703613,208.686707 
	C731.480896,213.926804 729.315552,215.122620 723.820557,213.875259 
	C716.100891,212.122894 708.182739,212.087448 700.372498,211.146957 
	C697.271606,210.773560 694.299988,210.069946 690.985718,209.659698 
	C696.415161,196.851700 701.688660,184.269592 707.077087,171.736877 
	C713.651001,156.446609 720.314331,141.194748 726.956787,125.934036 
	C728.186462,123.108871 729.164551,120.100029 730.835327,117.554375 
	C736.849243,108.391289 731.710083,100.314827 728.536682,92.136536 
	C717.670288,64.132011 706.661560,36.182632 695.649719,8.234822 
	C694.546753,5.435753 694.590515,3.930819 698.232971,3.963963 
	C709.729126,4.068569 721.227661,4.083489 732.723511,3.961575 
	C737.291138,3.913136 737.051880,7.531593 738.279053,10.609730 
z"/>
<path fill="#E50914" opacity="1.000000" stroke="none" 
	d="
M196.029877,85.000000 
	C206.980560,85.383278 217.353653,83.437378 227.835556,83.903603 
	C230.991669,84.043976 232.158661,84.704346 232.075241,88.064003 
	C231.851990,97.056717 231.823685,106.063698 232.083099,115.054482 
	C232.192673,118.852165 231.302612,120.199615 227.210068,120.103867 
	C214.885880,119.815544 202.549530,120.089561 190.220444,119.938568 
	C187.107330,119.900452 185.872498,120.576790 185.921219,124.012352 
	C186.114975,137.673630 186.116562,151.340927 185.920395,165.002121 
	C185.870789,168.456329 187.124542,169.274048 190.233490,169.029510 
	C203.707809,167.969620 217.190811,167.020203 230.670853,166.033157 
	C231.002777,166.008835 231.337585,166.025314 231.669800,166.003616 
	C247.000015,165.003128 247.000336,165.002884 246.999817,180.396332 
	C246.999619,186.228531 246.966599,192.061005 247.014221,197.892792 
	C247.029343,199.742645 246.880341,201.067200 244.437088,201.110031 
	C242.854843,201.137756 241.364716,202.046326 239.636627,202.038712 
	C222.432236,201.962769 205.375595,204.417999 188.204987,205.110687 
	C176.039154,205.601486 163.905014,206.947479 151.767822,208.035278 
	C148.253036,208.350281 146.894775,207.528290 146.903214,203.535675 
	C147.040466,138.548553 147.035217,73.560966 146.911865,8.573787 
	C146.904648,4.764921 147.985306,3.898871 151.657486,3.916762 
	C181.984238,4.064517 212.312256,4.058518 242.639114,3.921977 
	C246.151627,3.906163 247.168091,4.864471 247.080536,8.372279 
	C246.843643,17.864531 246.872070,27.369221 247.069382,36.863277 
	C247.136795,40.107403 246.204117,41.100929 242.903732,41.071522 
	C225.575119,40.917107 208.243164,41.110664 190.915405,40.914227 
	C187.079941,40.870747 185.793320,41.776169 185.899170,45.818813 
	C186.191299,56.975666 186.202667,68.150681 185.899673,79.306961 
	C185.779541,83.730286 186.815582,85.844788 191.545776,85.033669 
	C192.840652,84.811623 194.205887,84.999977 196.029877,85.000000 
z"/>
<path fill="#E50914" opacity="1.000000" stroke="none" 
	d="
M442.027649,118.000000 
	C431.000000,118.000008 431.000092,118.000008 431.000031,128.690659 
	C430.999847,150.013947 430.916870,171.337891 431.080933,192.659912 
	C431.108215,196.203445 430.085510,197.163681 426.608948,197.078995 
	C417.119049,196.847885 407.612366,196.780014 398.127716,197.101135 
	C393.965240,197.242065 392.884552,196.071976 392.901245,191.896027 
	C393.065125,150.915985 393.000000,109.935028 393.000000,68.954330 
	C393.000000,48.963745 393.086212,28.972454 392.922913,8.983204 
	C392.892548,5.267702 393.595551,3.869028 397.746185,3.896117 
	C427.564240,4.090724 457.384613,4.085206 487.202789,3.900595 
	C491.265472,3.875442 492.190948,5.118919 492.084564,8.933852 
	C491.824554,18.255547 491.859833,27.592567 492.073669,36.916599 
	C492.149902,40.242271 491.070557,41.093594 487.852325,41.067009 
	C470.528320,40.923931 453.201050,41.120228 435.878479,40.908314 
	C431.967865,40.860477 430.803711,41.883980 430.904053,45.853168 
	C431.181824,56.840977 431.108551,67.842102 430.933380,78.834129 
	C430.882477,82.028679 431.715088,83.125755 435.065155,83.074944 
	C447.556366,82.885483 460.053925,83.112251 472.545258,82.926346 
	C475.922394,82.876083 477.194183,83.637451 477.085144,87.277496 
	C476.820862,96.098755 476.816040,104.938896 477.086578,113.759773 
	C477.199799,117.450974 475.832062,118.136024 472.507568,118.070526 
	C462.516205,117.873688 452.518494,117.999855 442.027649,118.000000 
z"/>
<path fill="#E50914" opacity="1.000000" stroke="none" 
	d="
M338.000000,178.998474 
	C337.999481,184.164230 337.829437,188.838593 338.053253,193.494019 
	C338.225311,197.072449 336.742310,198.134674 333.345276,198.053116 
	C326.016907,197.877182 318.681335,197.999298 311.348724,198.000488 
	C310.348846,198.000641 309.343353,197.938797 308.349945,198.020645 
	C299.999390,198.708527 300.000000,198.716614 300.000000,190.342621 
	C299.999939,142.347275 299.934082,94.351692 300.109558,46.356995 
	C300.125732,41.928402 299.031982,40.709152 294.620697,40.889816 
	C285.636688,41.257748 276.625305,40.901741 267.628815,41.055401 
	C264.808746,41.103565 263.900146,40.247089 263.943359,37.395245 
	C264.094818,27.398508 264.073242,17.397245 263.954712,7.399628 
	C263.924255,4.829512 264.669891,3.947100 267.332825,3.953016 
	C301.829285,4.029651 336.326050,4.020359 370.822601,3.968230 
	C373.128632,3.964745 374.062988,4.603554 374.038422,7.054911 
	C373.934967,17.386198 373.901764,27.720448 374.050262,38.050632 
	C374.095154,41.173977 372.325043,41.021526 370.216736,41.013222 
	C361.551056,40.979080 352.872589,41.278919 344.224213,40.890507 
	C339.388000,40.673302 337.825806,41.734402 337.856354,47.012741 
	C338.109863,90.840286 338.000000,134.669922 338.000000,178.998474 
z"/>
<path fill="#E50914" opacity="1.000000" stroke="none" 
	d="
M549.000000,58.000000 
	C549.000061,91.978798 549.082031,125.458054 548.897339,158.935837 
	C548.874023,163.165176 550.092834,163.966934 554.148499,164.132965 
	C570.965759,164.821457 587.760681,166.043716 604.569214,166.972900 
	C606.647095,167.087769 607.017517,168.044830 607.011169,169.793533 
	C606.974365,179.953629 606.945435,190.114288 607.028687,200.273834 
	C607.047485,202.566589 606.013428,203.157669 604.004944,203.001373 
	C596.125732,202.388199 588.244751,201.798904 580.363892,201.207245 
	C579.208252,201.120468 578.049438,201.001907 576.892944,201.010468 
	C557.831909,201.151581 538.878296,198.299500 519.795654,198.968842 
	C517.170776,199.060928 514.709900,197.565384 511.988678,197.946716 
	C510.466278,198.160049 509.992249,197.145279 510.015503,195.785339 
	C510.032562,194.786438 510.000946,193.786804 510.000916,192.787506 
	C510.000031,131.659546 510.047119,70.531471 509.899902,9.403864 
	C509.889526,5.088739 510.805237,3.694515 515.327271,3.881349 
	C524.805054,4.272935 534.316833,4.204444 543.801270,3.904195 
	C547.854858,3.775870 549.180359,4.738737 549.108398,9.032482 
	C548.837830,25.184393 549.000000,41.343555 549.000000,58.000000 
z"/>
<path fill="#E50914" opacity="1.000000" stroke="none" 
	d="
M670.000000,14.039047 
	C670.000000,77.159859 669.947327,139.787735 670.108398,202.415070 
	C670.120178,207.011765 668.874634,208.907440 664.380798,207.969406 
	C654.673828,205.943192 644.719910,206.536148 634.948425,205.104645 
	C632.501282,204.746155 631.932861,203.974915 631.969971,201.766495 
	C632.068054,195.938446 632.000183,190.107635 632.000183,184.277924 
	C631.999939,125.980827 632.051025,67.683594 631.896729,9.386904 
	C631.885193,5.033893 632.860291,3.690553 637.344482,3.884716 
	C646.322083,4.273439 655.337158,4.236194 664.318970,3.899796 
	C668.767334,3.733194 670.833435,4.848618 670.033447,9.554225 
	C669.813293,10.849277 670.000000,12.213496 670.000000,14.039047 
z"/>
</svg>